<svg aria-hidden="true" style="position: absolute; width: 0; height: 0; overflow: hidden;" version="1.1" xmlns="http://www.w3.org/2000/svg" xmlns:xlink="http://www.w3.org/1999/xlink">
<defs>

<symbol id="glass" viewBox="0 0 32 32">
<title>MAGNIFYING-GLASS</title>
<path d="M30.756 26.667c0.533 0.533 0.889 1.244 0.889 1.956 0 1.778-1.244 3.022-2.844 3.022-0.889 0-1.6-0.356-2.133-0.889l-8.711-8.533c-1.6 1.067-3.733 1.6-5.867 1.6-6.4 0-11.733-5.333-11.733-11.733s5.333-11.733 11.733-11.733c6.4 0 11.733 5.333 11.733 11.733 0 2.133-0.533 4.267-1.6 5.867l8.533 8.711zM12.089 3.2c-4.8 0-8.889 4.089-8.889 8.889s4.089 8.711 8.889 8.711c4.8 0 8.711-3.911 8.711-8.711s-3.911-8.889-8.711-8.889z"></path>
</symbol>
<symbol id="shopping-cart" viewBox="0 0 38 32">
<title>SHOPPING-CART</title>
<path d="M37.76 7.893l-5.12 11.733c-0.427 0.427-0.853 0.853-1.493 0.853l-15.36 1.067 0.853 2.56h16.64c1.92 0 3.413 1.493 3.413 3.413 0 2.133-1.493 3.627-3.413 3.627s-3.627-1.493-3.627-3.627h-16.427c0 2.133-1.493 3.627-3.413 3.627s-3.627-1.493-3.627-3.627c0-1.92 1.707-3.413 3.627-3.413h3.2l-6.827-19.413h-4.053c-0.853 0-1.707-0.64-1.707-1.707s0.853-1.707 1.707-1.707h5.333c0.853 0 1.493 0.427 1.707 1.067l1.067 2.987h26.027c0.853 0 1.707 0.853 1.707 1.707q0 0.427-0.213 0.853zM11.307 8.747l3.413 9.387 15.147-1.067 3.627-8.32z"></path>
</symbol>

<symbol id="alarm" viewBox="0 0 33 32">
<title>ALARM</title>
<path d="M31.69 9.806c-1.548-3.819-4.645-6.916-8.465-8.465 1.032-0.826 2.374-1.342 3.716-1.342 3.406 0 6.090 2.684 6.090 6.090 0 1.342-0.516 2.684-1.342 3.716zM31.484 16.516c0 4.026-1.548 7.535-4.129 10.219l2.168 2.168c0.206 0.206 0.413 0.619 0.413 1.032 0 0.826-0.723 1.548-1.548 1.548-0.413 0-0.826-0.206-1.032-0.413l-2.271-2.271c-2.477 1.652-5.368 2.684-8.568 2.684s-6.090-1.032-8.568-2.684l-2.168 2.271c-0.31 0.206-0.723 0.413-1.135 0.413-0.826 0-1.548-0.723-1.548-1.548 0-0.413 0.206-0.826 0.413-1.135l2.168-2.065c-2.581-2.684-4.129-6.297-4.129-10.219 0-8.258 6.71-14.968 14.968-14.968s14.968 6.71 14.968 14.968zM16.516 4.645c-6.606 0-11.871 5.265-11.871 11.871s5.265 11.871 11.871 11.871c6.606 0 11.871-5.265 11.871-11.871s-5.265-11.871-11.871-11.871zM22.71 18.065h-6.194c-0.826 0-1.548-0.723-1.548-1.548v-8.258c0-0.826 0.723-1.548 1.548-1.548s1.548 0.723 1.548 1.548v6.71h4.645c0.826 0 1.548 0.723 1.548 1.548s-0.723 1.548-1.548 1.548zM1.342 10.013c-0.826-1.032-1.342-2.374-1.342-3.819 0-3.406 2.787-6.194 6.194-6.194 1.445 0 2.787 0.516 3.819 1.342-3.923 1.652-7.019 4.748-8.671 8.671z"></path>
</symbol>

<symbol id="graph" viewBox="0 0 32 32">
<title>LINE-GRAPH</title>
<path d="M30.5 32h-29c-0.8 0-1.5-0.7-1.5-1.5v-29c0-0.8 0.7-1.5 1.5-1.5h29c0.8 0 1.5 0.7 1.5 1.5v29c0 0.8-0.7 1.5-1.5 1.5zM29 3h-26v26h26zM5.2 16.2l4-2.5q0.4-0.2 0.8-0.2 0.5 0 0.8 0.3l6.7 4.4 7.6-5.4q0.4-0.3 0.9-0.3c0.8 0 1.5 0.7 1.5 1.5 0 0.5-0.2 0.9-0.6 1.2l-8.5 6q-0.4 0.3-0.9 0.3t-0.9-0.3l-6.6-4.4-3.2 2q-0.3 0.2-0.8 0.2c-0.8 0-1.5-0.7-1.5-1.5 0-0.5 0.3-1 0.7-1.3z"></path>
</symbol>
<symbol id="computer" viewBox="0 0 37 32">
<title>COMPUTER</title>
<path d="M34.286 26.286h-10.857v2.857l2.286 2.286v0.571h-14.857v-0.571l2.286-2.286v-2.857h-10.857c-0.914 0-1.714-0.8-1.714-1.714v-22.857c0-0.914 0.8-1.714 1.714-1.714h32c0.914 0 1.714 0.8 1.714 1.714v22.857c0 0.914-0.8 1.714-1.714 1.714zM33.714 2.286h-30.857v19.429h30.857zM14.857 10.286c0.457 0 0.914 0.229 1.257 0.457l1.029 1.143 3.314-3.429c0.343-0.229 0.8-0.457 1.257-0.457 0.914 0 1.714 0.8 1.714 1.714 0 0.457-0.229 0.914-0.457 1.257l-4.571 4.571c-0.343 0.229-0.8 0.457-1.257 0.457s-0.914-0.229-1.257-0.457l-2.286-2.286c-0.229-0.343-0.457-0.8-0.457-1.257 0-0.914 0.8-1.714 1.714-1.714z"></path>
</symbol>
<symbol id="book" viewBox="0 0 32 32">
<title>BOOK-2</title>
<path d="M31.1 25.9l-14.5 6q-0.3 0.1-0.6 0.1t-0.6-0.1l-14.5-6c-0.5-0.2-0.9-0.8-0.9-1.4v-23c0-0.8 0.7-1.5 1.5-1.5q0.3 0 0.6 0.1 0 0 0 0l13.9 5.8 13.9-5.8q0 0 0 0 0.3-0.1 0.6-0.1c0.8 0 1.5 0.7 1.5 1.5v23c0 0.6-0.4 1.2-0.9 1.4zM14.5 8.5l-11.5-4.8v19.8l11.5 4.8zM29 3.7l-11.5 4.8v19.7l11.5-4.8zM19.9 10.6l5.5-2.5q0.3-0.1 0.6-0.1c0.8 0 1.5 0.7 1.5 1.5 0 0.6-0.4 1.1-0.9 1.4l-5.5 2.5q-0.3 0.1-0.6 0.1c-0.8 0-1.5-0.7-1.5-1.5 0-0.6 0.4-1.1 0.9-1.4zM19.9 16.1l5.5-2.5q0.3-0.1 0.6-0.1c0.8 0 1.5 0.7 1.5 1.5 0 0.6-0.4 1.1-0.9 1.4l-5.5 2.5q-0.3 0.1-0.6 0.1c-0.8 0-1.5-0.7-1.5-1.5 0-0.6 0.4-1.1 0.9-1.4zM19.9 21.6l5.5-2.5q0.3-0.1 0.6-0.1c0.8 0 1.5 0.7 1.5 1.5 0 0.6-0.4 1.1-0.9 1.4l-5.5 2.5q-0.3 0.1-0.6 0.1c-0.8 0-1.5-0.7-1.5-1.5 0-0.6 0.4-1.1 0.9-1.4zM6 8q0.3 0 0.6 0.1l5.5 2.5c0.5 0.3 0.9 0.8 0.9 1.4 0 0.8-0.7 1.5-1.5 1.5q-0.3 0-0.6-0.1l-5.5-2.5c-0.5-0.3-0.9-0.8-0.9-1.4 0-0.8 0.7-1.5 1.5-1.5zM6 13.5q0.3 0 0.6 0.1l5.5 2.5c0.5 0.3 0.9 0.8 0.9 1.4 0 0.8-0.7 1.5-1.5 1.5q-0.3 0-0.6-0.1l-5.5-2.5c-0.5-0.3-0.9-0.8-0.9-1.4 0-0.8 0.7-1.5 1.5-1.5zM6 19q0.3 0 0.6 0.1l5.5 2.5c0.5 0.3 0.9 0.8 0.9 1.4 0 0.8-0.7 1.5-1.5 1.5q-0.3 0-0.6-0.1l-5.5-2.5c-0.5-0.3-0.9-0.8-0.9-1.4 0-0.8 0.7-1.5 1.5-1.5z"></path>
</symbol>
<symbol id="home" viewBox="0 0 33 32">
<title>HOME</title>
<path  d="M33.032 17.032c0 0.826-0.723 1.548-1.548 1.548-0.413 0-0.826-0.206-1.032-0.413l-13.935-13.832v-0.103l-13.832 13.935c-0.31 0.206-0.723 0.413-1.135 0.413-0.826 0-1.548-0.723-1.548-1.548 0-0.413 0.206-0.826 0.516-1.135l14.865-14.865c0.31-0.31 0.723-0.516 1.135-0.516q0 0 0 0t0.103 0q0 0 0 0t0.103 0q0 0 0 0c0.31 0 0.723 0.206 0.929 0.516l6.090 6.090v-1.445c0-0.826 0.723-1.548 1.548-1.548s1.548 0.723 1.548 1.548v4.542l5.781 5.781c0.206 0.206 0.413 0.619 0.413 1.032zM29.935 19.613v10.839c0 0.826-0.723 1.548-1.548 1.548h-3.097v-12.387h-6.194v12.387h-14.452c-0.826 0-1.548-0.723-1.548-1.548v-10.839l13.419-13.419zM13.935 19.613h-6.194v6.194h6.194z"></path>
</symbol>
<symbol id="image" viewBox="0 0 33 32">
<title>IMAGE</title>
<path  d="M31.5 32h-29c-0.8 0-1.5-0.7-1.5-1.5v-29c0-0.8 0.7-1.5 1.5-1.5h29c0.8 0 1.5 0.7 1.5 1.5v29c0 0.8-0.7 1.5-1.5 1.5zM30 3h-26v26h26zM7.5 4.5h5.5c0.8 0 1.5 0.7 1.5 1.5s-0.7 1.5-1.5 1.5h-4.5v4.5c0 0.8-0.7 1.5-1.5 1.5s-1.5-0.7-1.5-1.5v-7.5h2zM5.5 20c0-0.8 0.7-1.5 1.5-1.5s1.5 0.7 1.5 1.5v4.5h4.5c0.8 0 1.5 0.7 1.5 1.5s-0.7 1.5-1.5 1.5h-7.5v-2zM21 4.5h7.5v7.5c0 0.8-0.7 1.5-1.5 1.5s-1.5-0.7-1.5-1.5v-4.5h-4.5c-0.8 0-1.5-0.7-1.5-1.5s0.7-1.5 1.5-1.5zM21 24.5h4.5v-4.5c0-0.8 0.7-1.5 1.5-1.5s1.5 0.7 1.5 1.5v7.5h-7.5c-0.8 0-1.5-0.7-1.5-1.5s0.7-1.5 1.5-1.5z"></path>
</symbol>
<symbol id="icon-instagram" viewBox="0 0 32 32">
<title>instagram</title>
<path  d="M27.938 31.754h-23.631c-2.215 0-3.938-1.723-3.938-3.938v-23.631c0-2.215 1.723-3.938 3.938-3.938h23.631c2.215 0 3.938 1.723 3.938 3.938v23.631c0 2.215-1.723 3.938-3.938 3.938zM16.123 9.846c-2.462 0-4.554 1.477-5.538 3.569q0 0 0 0.123-0.123 0.123-0.246 0.369 0 0.123 0 0.246-0.123 0.123-0.123 0.369 0 0.123 0 0.246-0.123 0.123-0.123 0.369 0 0.123 0 0.246-0.123 0.246-0.123 0.615c0 3.323 2.831 6.154 6.154 6.154s6.154-2.831 6.154-6.154q0-0.369-0.123-0.615 0-0.123 0-0.246 0-0.246-0.123-0.369 0-0.123 0-0.246 0-0.246-0.123-0.369 0-0.123 0-0.246-0.123-0.246-0.246-0.369 0-0.123 0-0.123c-0.985-2.092-3.077-3.569-5.538-3.569zM28.308 5.415c0-0.862-0.738-1.6-1.6-1.6h-3.077c-0.862 0-1.6 0.738-1.6 1.6v3.077c0 0.862 0.738 1.6 1.6 1.6h3.077c0.862 0 1.6-0.738 1.6-1.6zM28.308 13.538h-2.831q0.246 1.231 0.246 2.585c0 5.292-4.308 9.6-9.6 9.6s-9.6-4.308-9.6-9.6q0-1.354 0.246-2.585h-2.831v13.169c0 0.862 0.738 1.6 1.6 1.6h21.169c0.862 0 1.6-0.738 1.6-1.6z"></path>
</symbol>
<symbol id="icon-pinterest" viewBox="0 0 26 32">
<title>pinterest</title>
<path  d="M11.2 20.8q-0.492 1.477-0.862 3.077c-0.246 1.108-0.492 2.092-0.862 3.077-0.615 1.6-1.477 3.077-2.462 4.308-0.738 0.862-0.615 0.492-0.862 0.492-0.123-0.123-0.123-0.246-0.123-0.492-0.246-1.231-0.123-2.708 0-4.062 0-1.6 0.369-2.954 0.738-4.308 0.492-2.462 1.108-5.046 1.723-7.508 0-0.246 0.123-0.492 0.123-0.615-0.246-0.738-0.492-1.354-0.615-2.092q-0.123-1.231 0.246-2.338c0.369-1.354 1.108-2.462 2.338-2.954 0.738-0.246 1.6-0.123 2.092 0.246q0.862 0.369 1.108 1.477c0.123 0.738 0 1.723-0.123 2.338-0.369 1.477-0.738 2.585-1.108 4.062-0.246 0.738-0.492 1.477-0.246 2.215 0.123 0.738 0.492 1.231 0.985 1.6 0.615 0.369 1.231 0.615 1.969 0.492 1.6 0 2.585-0.985 3.323-1.846 1.108-1.477 1.846-3.446 2.092-5.785 0-0.738 0.123-1.6 0-2.462 0-1.6-0.492-2.831-1.354-3.815-0.738-0.985-1.723-1.723-3.077-2.215-1.231-0.369-3.077-0.492-4.554-0.246-2.954 0.492-4.923 2.092-6.154 4.308-0.615 1.231-0.985 2.585-0.985 4.308 0 1.231 0.369 2.215 0.862 3.077 0.123 0.246 0.369 0.369 0.492 0.738 0.246 0.369 0 0.985-0.123 1.354-0.123 0.492-0.123 1.231-0.738 1.231-0.246 0-0.615-0.123-0.738-0.246-1.6-0.862-2.585-2.462-3.077-4.554-0.246-1.354-0.246-2.831 0-4.062 0.246-1.108 0.738-2.215 1.231-3.2 0.985-1.846 2.462-3.323 4.185-4.308 1.477-0.862 2.954-1.354 4.8-1.723q0.985-0.123 2.092-0.123c1.969-0.123 3.815 0.369 5.292 0.985 1.477 0.738 2.585 1.6 3.692 2.708 0.985 1.108 1.723 2.338 2.215 4.062 0.246 0.862 0.492 1.723 0.492 2.831 0 0.985-0.246 1.969-0.369 2.831-0.615 3.569-2.215 6.4-4.8 8-0.492 0.369-1.231 0.738-2.092 0.985s-1.723 0.369-2.708 0.369c-0.985-0.123-1.846-0.369-2.462-0.738-0.738-0.369-1.231-0.862-1.6-1.477z"></path>
</symbol>
<symbol id="icon-twitter" viewBox="0 0 38 32">
<title>twitter</title>
<path  d="M25.455 0.873c2.909 0 4.509 1.018 6.109 2.327 1.164 0 2.909-0.727 3.927-1.309q0.436-0.145 0.873-0.436c-0.582 1.455-1.309 2.618-2.473 3.491-0.291 0.291-0.436 0.582-0.873 0.727q0 0 0 0c1.745 0 3.055-0.873 4.364-1.164q0 0 0 0c-0.727 1.018-1.6 2.182-2.618 2.909q-0.582 0.436-1.164 1.018c0 1.745 0 3.345-0.291 4.8-2.036 8.582-6.982 14.4-14.982 17.018-2.909 0.873-7.564 1.164-10.909 0.436-1.6-0.436-3.055-0.873-4.509-1.455q-1.018-0.582-2.036-1.164-0.436-0.291-0.727-0.436c0.727 0 1.6 0.291 2.473 0.145 0.727-0.145 1.455-0.145 2.182-0.291 1.745-0.436 3.2-0.873 4.509-1.6 0.727-0.436 1.6-0.873 2.182-1.455-0.873 0-1.745-0.145-2.327-0.291-2.473-0.873-3.927-2.473-4.8-4.945 0.727 0.145 2.909 0.291 3.345-0.145-0.873 0-1.891-0.582-2.473-1.018-2.036-1.309-3.636-3.345-3.636-6.545q0.436 0.145 0.873 0.436c0.436 0.145 0.873 0.291 1.6 0.436 0.145 0 0.727 0.145 1.018 0q0 0-0.145 0c-0.291-0.436-1.018-0.727-1.309-1.164-1.309-1.6-2.473-4.073-1.745-6.982 0.145-0.727 0.436-1.309 0.873-1.891q0 0 0 0c0.145 0.291 0.436 0.436 0.727 0.727 0.582 0.873 1.455 1.6 2.182 2.182 2.764 2.182 5.382 3.491 9.455 4.509 1.018 0.291 2.182 0.436 3.345 0.436-0.291-1.018-0.291-2.618 0-3.491 0.727-2.473 2.182-4.218 4.364-5.236q0.727-0.291 1.745-0.436 0.436-0.145 0.873-0.145z"></path>
</symbol>
<symbol id="icon-facebook" viewBox="0 0 16 32">
<title>facebook</title>
<path  d="M14.892 0.246c0 1.846 0 5.046 0 5.046s-3.692-0.369-4.677 1.108c-0.492 0.738-0.246 3.077-0.246 4.677 1.6 0 3.323 0 4.923 0-0.369 1.969-0.738 3.2-0.985 4.923-1.477 0-3.938 0-3.938 0v15.754c0 0-4.677 0-6.892 0 0-4.8 0-10.585 0-15.754-1.108 0-1.846 0-2.954 0 0-1.723 0-3.077 0-4.923 0.985 0 1.846 0 2.954 0 0.123-3.569 0.123-7.138 1.969-8.985 1.969-2.092 3.938-1.846 9.846-1.846z"></path>
</symbol>
</defs>
</svg>
